<svg xmlns="http://www.w3.org/2000/svg" viewBox="0 0 286 320" fill="none">
  <!--
    Locked geometry of the Favorite Son pie mark, traced from public/logo.png.
    The shape lives here. Neon color, the white core, and the glow are applied in PieMark.
    The crust is the original band. Its outer edge already spans the same width as the slice.
  -->
  <g id="mask" fill="#000" fill-rule="evenodd">
    <path id="ring" d="M146.00 319.50 L133.00 319.50 L131.00 317.50 L126.00 317.50 L124.00 319.50 L120.00 319.50 L116.00 316.50 L111.00 316.50 L110.00 317.50 L108.00 317.50 L102.00 314.50 L92.00 313.50 L86.00 310.50 L80.00 309.50 L69.00 303.50 L67.00 303.50 L63.00 301.50 L57.00 297.50 L54.00 294.50 L49.00 291.50 L45.00 286.50 L43.00 286.50 L42.50 285.00 L39.00 282.50 L26.50 269.00 L25.50 265.00 L21.50 261.00 L21.50 259.00 L17.50 255.00 L15.50 249.00 L10.50 243.00 L9.50 237.00 L5.50 231.00 L4.50 226.00 L2.50 224.00 L2.50 221.00 L1.50 220.00 L1.50 212.00 L-0.50 210.00 L-0.50 206.00 L1.50 204.00 L-0.50 201.00 L-0.50 174.00 L3.50 169.00 L2.50 168.00 L2.50 166.00 L4.50 163.00 L4.50 160.00 L6.50 156.00 L6.50 152.00 L7.50 151.00 L7.50 147.00 L9.50 143.00 L9.50 140.00 L13.50 135.00 L13.50 130.00 L16.50 124.00 L21.50 118.00 L21.50 116.00 L28.50 110.00 L30.50 105.00 L37.00 98.50 L38.00 98.50 L44.00 92.50 L45.00 92.50 L52.00 85.50 L54.00 85.50 L57.00 81.50 L61.00 79.50 L64.00 76.50 L66.00 76.50 L71.00 70.50 L78.00 68.50 L84.00 64.50 L91.00 63.50 L95.00 61.50 L111.00 60.50 L115.00 58.50 L135.00 58.50 L136.00 57.50 L139.50 60.00 L143.50 66.00 L142.50 68.00 L139.00 70.50 L137.00 70.50 L136.00 69.50 L122.00 69.50 L121.00 70.50 L116.00 70.50 L115.00 71.50 L113.00 70.50 L107.00 70.50 L99.00 73.50 L93.00 73.50 L90.00 75.50 L77.00 79.50 L71.00 85.50 L66.00 87.50 L60.00 93.50 L57.00 94.50 L53.00 99.50 L51.00 100.50 L43.50 108.00 L43.00 109.50 L36.50 115.00 L34.50 119.00 L26.50 128.00 L22.50 136.00 L22.50 138.00 L18.50 144.00 L18.50 146.00 L17.50 147.00 L17.50 152.00 L15.50 155.00 L15.50 157.00 L13.50 160.00 L13.50 163.00 L12.50 164.00 L12.50 171.00 L9.50 177.00 L10.50 178.00 L10.50 182.00 L9.50 183.00 L9.50 189.00 L10.50 190.00 L10.50 195.00 L9.50 196.00 L10.50 198.00 L9.50 210.00 L10.50 211.00 L12.50 221.00 L16.50 227.00 L16.50 230.00 L19.50 236.00 L19.50 238.00 L25.50 246.00 L26.50 250.00 L29.50 255.00 L37.50 263.00 L38.50 266.00 L41.50 269.00 L41.50 270.00 L59.00 286.50 L60.00 286.50 L67.00 292.50 L71.00 294.50 L73.00 294.50 L79.00 298.50 L82.00 298.50 L85.00 301.50 L89.00 301.50 L93.00 303.50 L99.00 304.50 L102.00 306.50 L107.00 306.50 L112.00 308.50 L128.00 308.50 L129.00 307.50 L143.00 307.50 L144.00 308.50 L146.00 308.50 L147.00 307.50 L151.00 307.50 L152.00 306.50 L160.00 305.50 L165.00 302.50 L167.00 302.50 L171.00 300.50 L175.00 300.50 L180.00 297.50 L184.00 296.50 L188.00 293.50 L192.00 292.50 L205.00 281.50 L212.00 278.50 L214.50 275.00 L220.50 270.00 L220.50 269.00 L227.50 262.00 L230.50 257.00 L240.50 246.00 L241.50 243.00 L243.50 241.00 L243.50 238.00 L249.50 229.00 L249.50 227.00 L250.50 226.00 L250.50 221.00 L252.50 218.00 L252.50 213.00 L254.50 210.00 L254.50 200.00 L256.50 197.00 L255.50 195.00 L255.50 191.00 L256.50 190.00 L255.50 189.00 L255.50 179.00 L253.50 175.00 L253.50 168.00 L250.50 162.00 L250.50 156.00 L245.50 149.00 L245.50 145.00 L242.50 142.00 L247.00 136.50 L249.00 135.50 L251.00 136.50 L256.50 143.00 L258.50 151.00 L262.50 159.00 L262.50 162.00 L265.50 170.00 L265.50 173.00 L264.50 174.00 L265.50 180.00 L266.50 181.00 L266.50 197.00 L265.50 198.00 L265.50 206.00 L263.50 210.00 L262.50 218.00 L260.50 220.00 L260.50 222.00 L259.50 223.00 L259.50 227.00 L257.50 231.00 L257.50 234.00 L253.50 240.00 L251.50 244.00 L252.50 245.00 L247.50 252.00 L246.50 255.00 L235.50 268.00 L233.50 272.00 L228.00 277.50 L224.00 279.50 L222.50 282.00 L213.00 290.50 L209.00 292.50 L207.00 292.50 L201.00 296.50 L196.00 298.50 L189.00 304.50 L181.00 306.50 L175.00 311.50 L171.00 311.50 L170.00 312.50 L160.00 314.50 L159.00 315.50 L152.00 315.50 L146.00 319.50 Z"/>
    <path id="slice" d="M129.00 203.50 L125.00 202.50 L123.50 200.00 L123.50 198.00 L124.50 197.00 L124.50 190.00 L125.50 189.00 L125.50 186.00 L127.50 181.00 L127.50 174.00 L129.50 171.00 L129.50 167.00 L130.50 166.00 L130.50 163.00 L132.50 158.00 L133.50 143.00 L135.50 140.00 L135.50 133.00 L136.50 132.00 L136.50 129.00 L138.50 124.00 L138.50 120.00 L139.50 119.00 L138.50 117.00 L138.50 114.00 L139.50 113.00 L139.50 102.00 L142.50 95.00 L142.50 85.00 L145.50 79.00 L145.50 76.00 L147.50 72.00 L148.50 61.00 L150.50 58.00 L149.50 57.00 L149.50 55.00 L154.00 50.50 L162.00 49.50 L163.00 50.50 L165.00 50.50 L169.00 53.50 L172.00 53.50 L176.00 55.50 L181.00 59.50 L183.00 59.50 L194.00 68.50 L200.00 69.50 L204.00 73.50 L207.00 74.50 L211.00 77.50 L215.50 83.00 L224.50 91.00 L225.50 94.00 L230.50 98.00 L235.50 107.00 L239.50 111.00 L245.50 120.00 L245.50 123.00 L243.50 126.00 L243.50 129.00 L240.00 132.50 L237.00 133.50 L230.00 139.50 L217.00 146.50 L210.00 152.50 L199.00 158.50 L196.00 162.50 L192.00 163.50 L186.00 168.50 L183.00 169.50 L177.00 174.50 L174.00 175.50 L169.00 180.50 L167.00 179.50 L161.00 183.50 L157.00 187.50 L142.00 195.50 L137.00 200.50 L132.00 201.50 L129.00 203.50 Z M135.50 190.00 L138.00 187.50 L149.00 181.50 L153.00 177.50 L162.00 173.50 L165.00 170.50 L173.00 166.50 L178.00 161.50 L180.00 161.50 L184.00 157.50 L187.00 156.50 L194.00 150.50 L202.00 146.50 L208.00 140.50 L215.00 136.50 L222.00 129.50 L226.00 126.50 L231.00 124.50 L233.50 122.00 L232.50 117.00 L224.50 109.00 L222.50 105.00 L206.00 87.50 L205.00 87.50 L200.00 82.50 L198.00 82.50 L195.00 79.50 L192.00 78.50 L189.00 75.50 L182.00 72.50 L180.00 70.50 L174.00 67.50 L172.00 67.50 L168.00 65.50 L163.00 61.50 L161.00 61.50 L158.50 64.00 L157.50 69.00 L155.50 72.00 L155.50 77.00 L156.50 79.00 L154.50 82.00 L154.50 91.00 L152.50 94.00 L151.50 108.00 L148.50 113.00 L146.50 127.00 L144.50 131.00 L144.50 137.00 L142.50 142.00 L141.50 154.00 L139.50 158.00 L139.50 162.00 L138.50 163.00 L137.50 175.00 L134.50 180.00 L134.50 186.00 L133.50 187.00 L133.50 189.00 L135.00 190.50 L135.50 190.00 Z"/>
    <path id="crust" d="M261.00 118.50 L256.00 118.50 L252.50 115.00 L251.50 112.00 L246.50 106.00 L243.50 99.00 L235.50 89.00 L234.50 86.00 L230.00 81.50 L227.00 80.50 L221.00 73.50 L218.00 72.50 L214.00 68.50 L209.00 66.50 L203.00 61.50 L191.00 55.50 L186.00 50.50 L179.00 49.50 L173.00 45.50 L168.00 44.50 L163.00 41.50 L157.00 40.50 L154.50 39.00 L152.50 35.00 L152.50 30.00 L153.50 29.00 L152.50 28.00 L152.50 21.00 L156.50 14.00 L156.50 10.00 L158.50 7.00 L158.50 5.00 L163.00 -0.50 L165.00 1.50 L167.00 -0.50 L170.00 -0.50 L172.00 1.50 L174.00 0.50 L175.00 1.50 L179.00 1.50 L182.00 3.50 L188.00 3.50 L194.00 6.50 L197.00 6.50 L203.00 9.50 L205.00 11.50 L213.00 15.50 L217.00 16.50 L226.00 24.50 L229.00 25.50 L231.00 27.50 L240.00 32.50 L242.50 37.00 L250.50 45.00 L250.50 46.00 L255.50 50.00 L260.50 58.00 L265.50 62.00 L271.50 71.00 L280.50 89.00 L280.50 92.00 L285.50 97.00 L285.50 103.00 L283.50 105.00 L283.50 107.00 L281.00 109.50 L274.00 111.50 L268.00 114.50 L266.00 116.50 L261.00 118.50 Z M260.50 105.00 L270.00 100.50 L271.50 98.00 L269.50 95.00 L269.50 92.00 L264.50 82.00 L261.50 79.00 L255.50 68.00 L251.50 64.00 L249.50 59.00 L230.00 39.50 L229.00 39.50 L224.00 34.50 L222.00 34.50 L219.00 31.50 L214.00 29.50 L211.00 26.50 L206.00 24.50 L201.00 20.50 L194.00 19.50 L187.00 15.50 L181.00 14.50 L177.00 11.50 L172.00 11.50 L167.50 17.00 L167.50 19.00 L164.50 26.00 L164.50 30.00 L166.00 31.50 L171.00 32.50 L174.00 34.50 L180.00 35.50 L187.00 40.50 L193.00 41.50 L197.00 43.50 L208.00 52.50 L213.00 54.50 L219.00 58.50 L223.00 63.50 L229.00 66.50 L232.50 70.00 L234.50 74.00 L242.50 82.00 L244.50 86.00 L249.50 91.00 L252.50 97.00 L259.50 105.00 L260.50 105.00 Z"/>
  </g>
  <g id="core" fill="none" stroke="#000" stroke-width="1" stroke-linecap="round" stroke-linejoin="round">
    <path d="M249.00 141.00 L257.00 161.00 L260.00 174.00 L261.00 201.00 L259.00 205.00 L258.00 214.00 L256.00 217.00 L254.00 230.00 L243.00 251.00 L229.00 269.00 L215.00 282.00 L183.00 302.00 L175.00 304.00 L171.00 307.00 L141.00 314.00 L136.00 312.00 L121.00 313.00 L98.00 310.00 L82.00 305.00 L62.00 295.00 L43.00 279.00 L30.00 264.00 L16.00 242.00 L6.00 218.00 L4.00 179.00 L6.00 177.00 L13.00 144.00 L17.00 138.00 L20.00 128.00 L33.00 111.00 L53.00 91.00 L68.00 81.00 L74.00 75.00 L88.00 69.00 L100.00 66.00 L118.00 64.00 L134.00 64.00 L139.00 66.00"/>
    <path d="M129.00 195.00 L131.00 177.00 L134.00 170.00 L137.00 147.00 L139.00 144.00 L139.00 137.00 L143.00 123.00 L144.00 107.00 L147.00 100.00 L147.00 90.00 L150.00 84.00 L152.00 66.00 L156.00 57.00 L167.00 57.00 L191.00 72.00 L197.00 74.00 L208.00 82.00 L226.00 101.00 L236.00 114.00 L238.00 126.00 L174.00 171.00 L156.00 181.00 L139.00 193.00 L130.00 196.00"/>
    <path d="M159.00 23.00 L163.00 10.00 L167.00 6.00 L181.00 7.00 L204.00 16.00 L215.00 22.00 L234.00 35.00 L253.00 55.00 L268.00 77.00 L276.00 94.00 L277.00 103.00 L264.00 110.00 L257.00 110.00 L252.00 105.00 L239.00 85.00 L225.00 70.00 L216.00 63.00 L197.00 52.00 L190.00 46.00 L183.00 45.00 L178.00 41.00 L160.00 35.00 L159.00 22.00"/>
  </g>
</svg>
